<?xml version="1.0" standalone="no"?><!DOCTYPE svg PUBLIC "-//W3C//DTD SVG 1.1//EN" "http://www.w3.org/Graphics/SVG/1.1/DTD/svg11.dtd"><svg class="icon" width="200px" height="200.00px" viewBox="0 0 1024 1024" version="1.1" xmlns="http://www.w3.org/2000/svg"><path d="M851.288 184.704c0.368 14.432-2.72 26.92 9.464 38.912 12.784 12.584 4.648 41.08-10.656 53.776-13.872 11.52-28.264 14.456-43.712 5.944-16.112-8.88-26.56-22.904-24.376-42.008 0.968-8.464 5.728-17.784 11.624-24 4.744-5.008 5.896-9.224 5.888-15.168-0.072-41.536 0.464-83.088-0.288-124.608-0.296-16.208 9.912-25.264 24.328-27.056 12.52-1.552 24.872 11.616 25.176 26.24 0.368 17.528 0.088 35.08 0.088 54.136 5.728 0 10.808 0 15.888 0 29.936 0 59.992 1.64 89.776-0.456 29.864-2.104 59.464 24.176 66.728 51.408 1.872 7.024 2.64 14.544 2.648 21.84 0.136 224.528 0.312 449.056-0.08 673.584-0.072 39.752-18.144 70.632-54.544 87.64-13.832 6.464-30.432 9.776-45.776 9.808-274.296 0.568-548.592 0.496-822.896 0.336-45.376-0.024-84.368-25.64-96.192-70.736-2.216-8.44-4.088-17.28-4.096-25.936C0.04 650.832 0.152 423.312 0 195.792c-0.016-29.944 33.184-66.96 65.264-65.128 19.688 1.128 39.496 0.208 59.864 0.208 0 17.968 0 35.032 0 53.832-17.928 0-36.12 0.624-54.24-0.208-13.368-0.616-17.032 2.624-17.024 17.664 0.064 224.904 0.032 449.8 0.056 674.704 0 25.392 19.28 44.4 44.968 44.4 273.928 0.008 547.848 0.104 821.776-0.144 28.016-0.024 40.584-7.632 48.04-31.096 1.088-3.424 1.36-7.24 1.36-10.872 0.064-225.648 0.056-451.304 0.048-676.952 0-14.832-2.64-17.48-17.36-17.496C919.456 184.688 886.168 184.704 851.288 184.704z" fill="#1296db" /><path d="M220.072 130.728c40.72 0 80.248 0 120.512 0 0 18.16 0 35.48 0 53.664-39.792 0-79.312 0-120.496 0 1.664 12.544-4.64 24.632 6.96 35.232 16.84 15.4 8.992 45.808-7.688 58.592-15.728 12.064-34.64 13.064-46.992 3.48-19.096-14.816-25.912-33.768-19.032-53.248 0.72-2.048 1.592-4.624 3.216-5.672 11.048-7.104 9.824-17.976 9.768-28.84-0.192-36.672-0.128-73.344-0.048-110.016 0.032-16.256 6.776-28.496 17.632-31.424 17.848-4.816 35.8 3.936 36.128 27.24C220.264 96.184 220.072 112.64 220.072 130.728z" fill="#1296db" /><path d="M431.16 184.08c0 9.384-0.232 16.8 0.152 24.192 0.112 2.072 1.616 4.504 3.208 6 16.872 15.84 17.4 42.72-0.08 60.096-15.224 15.136-37.288 21.328-57.416 1.096-19.528-19.632-20.4-38.064-2.848-59.736 2.24-2.768 3-7.4 3.016-11.176 0.208-40.376-0.088-80.752 0.224-121.128 0.144-18.8 9.04-28.96 22.512-31.472 14.928-2.784 30.992 8.6 31.168 23.68 0.208 17.896 0.048 35.8 0.048 54.904 38.888 0 77.16 0 116.096 0 0 18.24 0 35.288 0 53.56C509.32 184.08 471.048 184.08 431.16 184.08z" fill="#1296db" /><path d="M642.224 130.944c39.584 0 77.328 0 115.912 0 0 17.72 0 35.04 0 53.592-38.216 0-76.504 0-115.728 0 0.544 14.432-2.68 26.768 9.344 38.944 14.192 14.36 4.984 43.432-15.256 57.4-16.984 11.72-38.84 8.632-52.52-7.416-14.592-17.12-15.96-42.784-1.248-56.024 5.224-4.696 5.64-8.76 5.64-14.184 0.032-41.136-0.032-82.28 0.04-123.416 0.032-20.216 15.936-32.56 35.168-27.48 11.088 2.928 18.44 14.768 18.608 30.552C642.352 98.52 642.224 114.128 642.224 130.944z" fill="#1296db" /><path d="M709.976 474.768c9.328 10.528 18.736 19.656 26.352 30.088 12.264 16.8 9.736 25.56-0.512 35.832-11.624 11.648-25.672 10.4-39.312-2.096-8.464-7.752-16.24-16.264-25.04-25.152-8.928 9-16.96 17.256-25.16 25.32-12.552 12.344-28.232 13.08-39.216 2.016-10.768-10.856-10.304-25.376 1.448-38.168 7.928-8.632 16.088-17.04 24.616-26.048-9.176-10.264-18.568-21.096-28.32-31.6-8.576-9.232-6.976-24.712 2.944-33.656 9.984-9 24.176-9.104 35.008-0.296 5.144 4.184 10.328 8.368 15.12 12.952 4.848 4.64 9.24 9.768 14.776 15.696 9.472-9.896 18.032-19.232 27.016-28.136 10.056-9.96 26.808-9.368 36.552 0.88 9.936 10.448 10.024 25.984 0.136 36.248-4.408 4.576-8.936 9.032-13.456 13.496C718.68 466.352 714.368 470.488 709.976 474.768z" fill="#1296db" /><path d="M513.024 665.232c-21.992 0.288-36.832-15.08-36.488-36.832 0.336-21.288 12.288-36.6 36.4-37.136 19.888-0.448 38.184 17.248 36.968 37.032C548.672 648.376 537.016 665.12 513.024 665.232z" fill="#1296db" /><path d="M352.104 665.232c-21.192-0.64-34.24-16.056-33.968-35.44 0.368-26.592 13.464-37.84 37.952-38.408 20.52-0.472 35.08 16.632 34.64 38.824C390.32 650.936 374.184 665.568 352.104 665.232z" fill="#1296db" /><path d="M512.824 512.544c-21.36-0.008-37.376-15.416-36.504-36.912 0.936-23.152 16.12-35.88 37.096-36.856 19.664-0.912 36.608 16.816 36.544 37.44C549.888 497.608 532.624 514.872 512.824 512.544z" fill="#1296db" /><path d="M513.824 743.888c19.704-1.824 34.36 14.592 36.136 36.456 1.552 19.184-16.768 37.272-36.544 37.568-20.168 0.304-37.104-16.352-37.288-36.68C475.92 759.848 492 743.928 513.824 743.888z" fill="#1296db" /><path d="M707.344 780.608c3.6 17.224-16.056 37.928-33.872 37.224-22.928-0.912-37.984-15.32-38.168-37.784-0.168-19.8 15.992-37.512 36.568-36.416C694.304 744.816 707.328 757.344 707.344 780.608z" fill="#1296db" /><path d="M794.976 627.776c-1.352-23.936 16.064-36.184 35.016-36.408 22.936-0.28 37.184 17.304 36.864 36.776-0.36 22.12-15.424 37.448-37.816 37.016C810.816 664.808 792.768 651.888 794.976 627.776z" fill="#1296db" /><path d="M318.936 779.824c-3.144-19.344 14.72-36.928 35.344-36.112 21.68 0.856 36.408 15.12 36.456 36.976 0.04 19.936-15.912 37.512-34.552 37.12C335.28 817.384 317.608 805.328 318.936 779.824z" fill="#1296db" /><path d="M830.696 512.544c-21.968-0.016-38.096-15.816-37.88-37.104 0.176-17.448 19.464-37.176 36.072-36.896 21.872 0.368 38.368 16.856 37.784 38.584C866.136 497.32 853.352 513.704 830.696 512.544z" fill="#1296db" /><path d="M231.304 628.256c0.72 23.864-15.528 36.624-35.848 36.912-21.328 0.296-35.992-15.728-35.944-38.696 0.04-19.696 15.976-35.192 35.992-35.312C215.632 591.032 232.84 606.952 231.304 628.256z" fill="#1296db" /><path d="M231.304 779.768c3.248 18-13.648 37.76-34.376 37.952-21.824 0.2-38.032-17.48-37.864-36.056 0.208-22.48 19.536-39.144 36.912-38.08C217.808 744.912 231.304 757.576 231.304 779.768z" fill="#1296db" /><path d="M707.344 628.16c0.792 23.96-15.6 36.76-35.912 37.016-20.48 0.256-35.832-15.664-35.88-36.688-0.056-21.616 15.456-37.488 36.448-37.296C692.488 591.384 707.336 606.912 707.344 628.16z" fill="#1296db" /><path d="M830.472 743.888c20.688-0.032 36.36 15.536 36.296 36.064-0.064 20.952-17.168 38.336-37.36 37.96-17.728-0.336-36.584-18.584-35.712-35.328C795.144 754.72 811.736 743.096 830.472 743.888z" fill="#1296db" /></svg>