<?xml version="1.0" standalone="no"?><!DOCTYPE svg PUBLIC "-//W3C//DTD SVG 1.1//EN" "http://www.w3.org/Graphics/SVG/1.1/DTD/svg11.dtd"><svg class="icon" width="200px" height="200.00px" viewBox="0 0 1024 1024" version="1.1" xmlns="http://www.w3.org/2000/svg"><path d="M512 163.84a29.632 29.632 0 0 0-13.376 3.136l-326.4 169.088c-4.672 2.432-7.744 6.016-7.744 9.152 0 3.136 3.072 6.72 7.744 9.152l326.4 169.152a30.592 30.592 0 0 0 26.752 0l326.4-169.152c4.672-2.432 7.68-6.016 7.68-9.152 0-3.136-3.008-6.72-7.68-9.152l-326.4-169.088A29.632 29.632 0 0 0 512 163.776z m27.52 386.944h0.448-0.448zM512 588.16c-14.4 0-28.8-3.328-41.6-9.984L144 408.96c-25.28-13.12-40.96-37.504-40.96-63.744 0-26.24 15.68-50.624 40.96-63.744l326.4-169.088c25.6-13.248 57.536-13.248 83.2 0l326.4 169.088c25.28 13.12 40.96 37.568 40.96 63.744 0 26.24-15.68 50.624-40.96 63.744l-326.4 169.152c-12.8 6.656-27.2 9.984-41.6 9.984z" fill="#1296db" /><path d="M512 751.552c-15.04 0-30.08-3.456-43.52-10.368L119.68 560.384a30.656 30.656 0 1 1 28.224-54.528l348.928 180.672a33.6 33.6 0 0 0 30.464 0l348.8-180.672a30.72 30.72 0 1 1 28.288 54.528L555.52 741.12c-13.44 6.912-28.544 10.368-43.52 10.368" fill="#1296db" /><path d="M512 921.6c-15.04 0-30.08-3.456-43.52-10.368L119.68 730.496a30.72 30.72 0 0 1 28.224-54.656l348.928 180.736a33.792 33.792 0 0 0 30.464 0l348.8-180.736a30.784 30.784 0 0 1 28.288 54.656l-348.8 180.736c-13.44 6.912-28.544 10.368-43.52 10.368" fill="#1296db" /></svg>