<?xml version="1.0" standalone="no"?><!DOCTYPE svg PUBLIC "-//W3C//DTD SVG 1.1//EN" "http://www.w3.org/Graphics/SVG/1.1/DTD/svg11.dtd"><svg class="icon" width="200px" height="200.00px" viewBox="0 0 1024 1024" version="1.1" xmlns="http://www.w3.org/2000/svg"><path d="M222.546585 235.08618 608.124268 235.08618 608.124268 280.621259 222.546585 280.621259Z" fill="#1296db" /><path d="M222.546585 416.84378 608.124268 416.84378 608.124268 462.373743 222.546585 462.373743Z" fill="#1296db" /><path d="M222.546585 598.599334 602.7734 598.599334 602.7734 644.129296 222.546585 644.129296Z" fill="#1296db" /><path d="M364.28575 859.555717c0 33.040511 26.881231 59.920718 59.921741 59.920718l393.262712 0c33.040511 0 59.920718-26.880207 59.920718-59.920718L877.390921 261.138532c0-33.040511-26.880207-59.921741-59.920718-59.921741l0 0 0-39.947827 0 0c55.067176 0 99.868545 44.801369 99.868545 99.869568l0 598.417185c0 55.067176-44.801369 99.868545-99.868545 99.868545L424.207491 959.424262c-55.067176 0-99.869568-44.801369-99.869568-99.868545" fill="#1296db" /><path d="M654.5486 839.464123 207.54901 839.464123c-60.417021 0-109.570511-47.298236-109.570511-105.433284L97.978499 168.868035c0-58.136072 49.15349-105.432261 109.570511-105.432261l446.998567 0c60.417021 0 109.570511 47.297212 109.570511 105.432261L764.118088 734.030839C764.119111 792.165888 714.965621 839.464123 654.5486 839.464123zM207.54901 105.358583c-37.300534 0-67.647703 28.490891-67.647703 63.509453L139.901307 734.030839c0 35.019585 30.347169 63.509453 67.647703 63.509453l446.998567 0c37.300534 0 67.64668-28.490891 67.64668-63.509453L722.194256 168.868035c0-35.019585-30.346145-63.509453-67.64668-63.509453L207.54901 105.358583z" fill="#1296db" /></svg>