<?xml version="1.0" standalone="no"?><!DOCTYPE svg PUBLIC "-//W3C//DTD SVG 1.1//EN" "http://www.w3.org/Graphics/SVG/1.1/DTD/svg11.dtd"><svg class="icon" width="200px" height="199.61px" viewBox="0 0 1026 1024" version="1.1" xmlns="http://www.w3.org/2000/svg"><path d="M32 0v1024" fill="#1296db" /><path d="M64 0v1024" fill="#1296db" /><path d="M96 0v1024" fill="#1296db" /><path d="M128 0v1024" fill="#1296db" /><path d="M160 0v1024" fill="#1296db" /><path d="M192 0v1024" fill="#1296db" /><path d="M224 0v1024" fill="#1296db" /><path d="M256 0v1024" fill="#1296db" /><path d="M288 0v1024" fill="#1296db" /><path d="M320 0v1024" fill="#1296db" /><path d="M352 0v1024" fill="#1296db" /><path d="M384 0v1024" fill="#1296db" /><path d="M416 0v1024" fill="#1296db" /><path d="M448 0v1024" fill="#1296db" /><path d="M480 0v1024" fill="#1296db" /><path d="M512 0v1024" fill="#1296db" /><path d="M544 0v1024" fill="#1296db" /><path d="M576 0v1024" fill="#1296db" /><path d="M608 0v1024" fill="#1296db" /><path d="M640 0v1024" fill="#1296db" /><path d="M672 0v1024" fill="#1296db" /><path d="M704 0v1024" fill="#1296db" /><path d="M736 0v1024" fill="#1296db" /><path d="M768 0v1024" fill="#1296db" /><path d="M800 0v1024" fill="#1296db" /><path d="M832 0v1024" fill="#1296db" /><path d="M864 0v1024" fill="#1296db" /><path d="M896 0v1024" fill="#1296db" /><path d="M928 0v1024" fill="#1296db" /><path d="M960 0v1024" fill="#1296db" /><path d="M992 0v1024" fill="#1296db" /><path d="M1024 0v1024" fill="#1296db" /><path d="M0 32h1026" fill="#1296db" /><path d="M0 64h1026" fill="#1296db" /><path d="M0 96h1026" fill="#1296db" /><path d="M0 128h1026" fill="#1296db" /><path d="M0 160h1026" fill="#1296db" /><path d="M0 192h1026" fill="#1296db" /><path d="M0 224h1026" fill="#1296db" /><path d="M0 256h1026" fill="#1296db" /><path d="M0 288h1026" fill="#1296db" /><path d="M0 320h1026" fill="#1296db" /><path d="M0 352h1026" fill="#1296db" /><path d="M0 384h1026" fill="#1296db" /><path d="M0 416h1026" fill="#1296db" /><path d="M0 448h1026" fill="#1296db" /><path d="M0 480h1026" fill="#1296db" /><path d="M0 512h1026" fill="#1296db" /><path d="M0 544h1026" fill="#1296db" /><path d="M0 576h1026" fill="#1296db" /><path d="M0 608h1026" fill="#1296db" /><path d="M0 640h1026" fill="#1296db" /><path d="M0 672h1026" fill="#1296db" /><path d="M0 704h1026" fill="#1296db" /><path d="M0 736h1026" fill="#1296db" /><path d="M0 768h1026" fill="#1296db" /><path d="M0 800h1026" fill="#1296db" /><path d="M0 832h1026" fill="#1296db" /><path d="M0 864h1026" fill="#1296db" /><path d="M0 896h1026" fill="#1296db" /><path d="M0 928h1026" fill="#1296db" /><path d="M0 960h1026" fill="#1296db" /><path d="M0 992h1026" fill="#1296db" /><path d="M286.918 282.5c21.052 0 38.108-17.06 38.108-38.11V107.098c0-21.052-17.06-38.13-38.108-38.13s-38.11 17.076-38.11 38.13v137.292c0 21.032 17.058 38.11 38.11 38.11z m459.112 0c21.032 0 38.092-17.06 38.092-38.11V107.098c0-21.052-17.058-38.13-38.092-38.13-21.07 0-38.13 17.076-38.13 38.13v137.292c0 21.032 17.058 38.11 38.13 38.11z m50.652-142.276v40.348c15.852 14.02 25.9 34.468 25.9 57.292 0 42.298-34.294 76.592-76.552 76.592-42.316 0-76.592-34.294-76.592-76.592 0-22.824 10.048-43.272 25.9-57.292V140.224H337.564v40.348c15.852 14.02 25.9 34.468 25.9 57.292 0 42.298-34.272 76.592-76.592 76.592-42.276 0-76.552-34.294-76.552-76.592 0-22.824 10.048-43.272 25.9-57.292V140.224H65.628v814.806h894.746V140.224h-163.698z m82.006 733.074H147.352V364.272h731.336v509.026zM403.096 468.028h205.838v57.738c-7.458 9.132-14.118 17.722-19.96 25.788s-12.25 19.28-19.162 33.67-12.856 29.212-17.798 44.498-8.976 30.496-12.092 45.648-5.9 31.84-8.334 50.086-3.664 30.884-3.664 37.876l-0.682 27.168h-66.172c2.122-18.11 4.342-35.442 6.62-52.034s5.258-33.086 8.9-49.522 9.582-37.196 17.798-62.298 14.606-42.374 19.162-51.802l22.588-49.074h-133.044v-57.738z" fill="#1296db" /></svg>